<?xml version="1.0" encoding="UTF-8"?>
<svg version="1.1" xmlns="http://www.w3.org/2000/svg" width="489" height="382">
<path d="M0 0 C161.37 0 322.74 0 489 0 C489 126.06 489 252.12 489 382 C327.63 382 166.26 382 0 382 C0 255.94 0 129.88 0 0 Z " fill="#FDFDFD" transform="translate(0,0)"/>
<path d="M0 0 C1.20546947 0.67515668 2.40444022 1.36201016 3.59765625 2.05859375 C4.92915617 2.8027691 6.26254499 3.54357332 7.59765625 4.28125 C8.273125 4.65523926 8.94859375 5.02922852 9.64453125 5.41455078 C12.73626298 7.07351052 15.90589 8.54144671 19.09765625 9.99609375 C26.42315746 13.35281317 33.62338756 16.93436865 40.81591797 20.56591797 C43.5103685 21.92491407 46.21028004 23.27291567 48.91015625 24.62109375 C49.87308594 25.10320312 50.83601562 25.5853125 51.828125 26.08203125 C53.68281034 27.00809483 55.53951483 27.93012808 57.3984375 28.84765625 C63.90203343 32.0679707 70.35199388 35.38777716 76.78515625 38.74609375 C77.62763916 39.18276367 78.47012207 39.61943359 79.33813477 40.06933594 C80.12760498 40.48344727 80.9170752 40.89755859 81.73046875 41.32421875 C82.43961426 41.69450195 83.14875977 42.06478516 83.87939453 42.44628906 C85.66015625 43.49609375 85.66015625 43.49609375 87.66015625 45.49609375 C87.78515625 47.80859375 87.78515625 47.80859375 86.66015625 50.49609375 C80.73432176 54.97070347 68.2151453 63.49609375 60.66015625 63.49609375 C60.66015625 78.34609375 60.66015625 93.19609375 60.66015625 108.49609375 C49.98242436 114.59765483 39.23460848 120.30939823 28.08642578 125.48852539 C23.07597219 127.81892906 18.10421247 130.21535665 13.16015625 132.68359375 C12.15988403 133.18149414 12.15988403 133.18149414 11.1394043 133.68945312 C6.85963022 135.83930314 2.70333785 138.12860992 -1.34765625 140.68359375 C-5.22529978 142.26506405 -8.54980646 141.79628902 -12.40167236 140.33267212 C-13.48373962 139.78799286 -14.56580688 139.2433136 -15.68066406 138.68212891 C-16.28304901 138.3829808 -16.88543396 138.0838327 -17.506073 137.77561951 C-19.48270604 136.79029526 -21.45023539 135.78811965 -23.41796875 134.78515625 C-24.79418892 134.09398627 -26.17088529 133.40376372 -27.54803467 132.71444702 C-30.42638175 131.27068053 -33.30063012 129.81916651 -36.171875 128.36132812 C-39.85411734 126.49186162 -43.54320716 124.6364429 -47.23506546 122.7860508 C-50.07465864 121.36210078 -52.91195831 119.93363511 -55.74843597 118.50349045 C-57.10845354 117.81778238 -58.46884962 117.1328245 -59.82962799 116.44862747 C-61.7274281 115.4928623 -63.62240951 114.53173956 -65.51660156 113.56884766 C-67.13492889 112.74944199 -67.13492889 112.74944199 -68.78594971 111.91348267 C-71.33984375 110.49609375 -71.33984375 110.49609375 -73.33984375 108.49609375 C-73.58035278 106.54721069 -73.58035278 106.54721069 -73.56689453 104.13818359 C-73.56674347 103.23740082 -73.56659241 102.33661804 -73.56643677 101.40853882 C-73.5561142 100.43454132 -73.54579163 99.46054382 -73.53515625 98.45703125 C-73.53232635 97.46103912 -73.52949646 96.465047 -73.52658081 95.43887329 C-73.51536215 92.24949257 -73.49025456 89.06038997 -73.46484375 85.87109375 C-73.45481613 83.71224363 -73.4456899 81.55338912 -73.4375 79.39453125 C-73.41541736 74.09495676 -73.38192333 68.79554512 -73.33984375 63.49609375 C-74.41669434 63.20404053 -75.49354492 62.9119873 -76.60302734 62.61108398 C-79.37802766 61.78308017 -81.62320861 61.02374801 -84.12890625 59.65625 C-85.07636719 59.14481445 -85.07636719 59.14481445 -86.04296875 58.62304688 C-86.6771875 58.27177734 -87.31140625 57.92050781 -87.96484375 57.55859375 C-88.60679687 57.21119141 -89.24875 56.86378906 -89.91015625 56.50585938 C-91.15729131 55.82734634 -92.39882987 55.13841785 -93.63378906 54.43798828 C-95.15478005 53.59826544 -96.72579804 52.85065593 -98.30078125 52.1171875 C-98.97367188 51.58222656 -99.6465625 51.04726562 -100.33984375 50.49609375 C-100.65234375 47.30859375 -100.65234375 47.30859375 -100.33984375 44.49609375 C-99.18871094 43.89023438 -98.03757813 43.284375 -96.8515625 42.66015625 C-96.09262695 42.26062744 -95.33369141 41.86109863 -94.55175781 41.44946289 C-92.84176659 40.5496503 -91.13147076 39.65041638 -89.42089844 38.75170898 C-85.15892283 36.51156923 -80.90080574 34.26518376 -76.65625 31.9921875 C-67.19046719 26.93849941 -57.61768733 22.19554811 -47.9140625 17.61499023 C-41.55509011 14.59865062 -35.29961301 11.43305372 -29.08984375 8.12109375 C-18.90579565 2.7085485 -18.90579565 2.7085485 -14.02734375 0.37109375 C-13.24746094 -0.00273438 -12.46757812 -0.3765625 -11.6640625 -0.76171875 C-7.20866294 -2.18445138 -4.26907963 -1.9223341 0 0 Z " fill="#325F8B" transform="translate(248.33984375,44.50390625)"/>
<path d="M0 0 C0.70427124 0.41636719 1.40854248 0.83273438 2.13415527 1.26171875 C2.75266357 1.53709473 3.37117188 1.8124707 4.00842285 2.09619141 C4.59260986 2.36995605 5.17679687 2.6437207 5.77868652 2.92578125 C6.44722656 3.23902344 7.1157666 3.55226563 7.80456543 3.875 C8.51145508 4.20886719 9.21834473 4.54273438 9.94665527 4.88671875 C10.6922168 5.23863281 11.43777832 5.59054688 12.20593262 5.953125 C22.45613455 10.81337683 32.59404933 15.8633921 42.57165527 21.26171875 C49.33216999 24.91733794 56.24246816 28.19515019 63.21228027 31.4296875 C67.90267842 33.60834345 72.5291662 35.9083091 77.13415527 38.26171875 C77.13415527 38.92171875 77.13415527 39.58171875 77.13415527 40.26171875 C76.09259277 40.74640625 75.05103027 41.23109375 73.97790527 41.73046875 C60.75321028 47.9055205 47.68967144 54.31250569 34.85290527 61.25952148 C29.44915281 64.15469232 23.92783117 66.7604882 18.35388184 69.31005859 C12.66564037 71.93429332 7.31582687 74.93975419 1.96618652 78.20703125 C-1.80831259 79.61270678 -3.14622427 78.72281462 -6.86584473 77.26171875 C-9.3829445 76.08889676 -11.86315117 74.88987412 -14.33996582 73.63818359 C-15.42392639 73.09642235 -15.42392639 73.09642235 -16.52978516 72.54371643 C-18.90153528 71.35714853 -21.27040622 70.16495024 -23.63928223 68.97265625 C-25.28962995 68.14561598 -26.94015545 67.31893038 -28.59085083 66.49258423 C-32.92282174 64.32279119 -37.25236795 62.14820288 -41.5814209 59.97259521 C-46.004197 57.75095516 -50.42925753 55.53387515 -54.85412598 53.31640625 C-63.52693628 48.96929482 -72.19719098 44.61711225 -80.86584473 40.26171875 C-80.86584473 39.60171875 -80.86584473 38.94171875 -80.86584473 38.26171875 C-70.79291372 33.12106355 -60.71038683 27.99980382 -50.61509418 22.90318871 C-45.92790921 20.53609554 -41.24431282 18.1624119 -36.5682373 15.7734375 C-32.05681522 13.46889134 -27.53686706 11.18196222 -23.01042747 8.90706253 C-21.28365954 8.03535327 -19.56007693 7.15730487 -17.83977699 6.27289963 C-15.43247906 5.03666124 -13.01491483 3.82330017 -10.59362793 2.61474609 C-9.8822467 2.24287674 -9.17086548 1.87100739 -8.43792725 1.48786926 C-5.25703732 -0.07290498 -3.50031293 -0.90172904 0 0 Z " fill="#FBFCFD" transform="translate(243.8658447265625,52.73828125)"/>
<path d="M0 0 C0 11.55 0 23.1 0 35 C-16.92395096 44.02610718 -16.92395096 44.02610718 -23.5 47 C-29.07166964 49.57050304 -34.53615326 52.27585265 -39.9375 55.1875 C-40.55488037 55.5179834 -41.17226074 55.8484668 -41.80834961 56.18896484 C-44.53994379 57.65559754 -47.25353827 59.14492705 -49.9453125 60.68359375 C-50.80898437 61.15925781 -51.67265625 61.63492188 -52.5625 62.125 C-53.28566406 62.54007813 -54.00882813 62.95515625 -54.75390625 63.3828125 C-59.42016006 64.6650179 -64.29960131 61.47490931 -68.4387207 59.40209961 C-69.47611893 58.88493881 -70.51351715 58.36777802 -71.58235168 57.83494568 C-72.68568344 57.27968704 -73.7890152 56.72442841 -74.92578125 56.15234375 C-76.06911423 55.58044815 -77.2124472 55.00855255 -78.39042664 54.41932678 C-80.79942468 53.21332037 -83.20760739 52.00583823 -85.61450195 50.7956543 C-88.70388598 49.24242581 -91.79591076 47.69454412 -94.88886738 46.14844418 C-97.83979311 44.67281309 -100.78901487 43.19378784 -103.73828125 41.71484375 C-104.85173416 41.15756088 -105.96518707 40.60027802 -107.11238098 40.02610779 C-108.1340184 39.51209915 -109.15565582 38.99809052 -110.20825195 38.46850586 C-111.56343681 37.78805458 -111.56343681 37.78805458 -112.94599915 37.09385681 C-115 36 -115 36 -116 35 C-116.08847743 32.47905924 -116.11527301 29.98569107 -116.09765625 27.46484375 C-116.0962413 26.71159317 -116.09482635 25.95834259 -116.09336853 25.18226624 C-116.08775376 22.7673044 -116.07519883 20.35243399 -116.0625 17.9375 C-116.0574869 16.30403779 -116.05292366 14.67057414 -116.04882812 13.03710938 C-116.03777954 9.02470415 -116.02050506 5.01236759 -116 1 C-111.76486844 1.76120623 -108.52586495 3.08242689 -104.6875 5.0625 C-103.43370674 5.70334612 -102.17979605 6.34396251 -100.92578125 6.984375 C-99.95439209 7.48420898 -99.95439209 7.48420898 -98.96337891 7.99414062 C-95.12810457 9.95899144 -91.26721814 11.87308261 -87.4074707 13.78930664 C-83.50174175 15.73302256 -79.61867974 17.71389132 -75.75 19.73046875 C-74.85748535 20.19026123 -73.9649707 20.65005371 -73.04541016 21.1237793 C-71.30044965 22.02306092 -69.56027456 22.93170617 -67.82568359 23.85083008 C-61.73665245 26.99037689 -61.73665245 26.99037689 -55 27 C-52.57255049 25.92113355 -50.40581668 24.82524889 -48.125 23.5 C-46.79270456 22.75854862 -45.4593349 22.0190248 -44.125 21.28125 C-43.44308594 20.90097656 -42.76117188 20.52070313 -42.05859375 20.12890625 C-38.78885737 18.33582501 -35.4632116 16.66125216 -32.125 15 C-31.14515137 14.51140503 -31.14515137 14.51140503 -30.14550781 14.01293945 C-23.72396382 10.83110037 -17.23789125 7.78853735 -10.7421875 4.76171875 C-8.3272301 3.63551858 -5.95088379 2.47066232 -3.5703125 1.26953125 C-1 0 -1 0 0 0 Z " fill="#FAFBFC" transform="translate(300,113)"/>
<path d="M0 0 C5.95703125 -0.390625 5.95703125 -0.390625 8 0 C11.54267355 3.80440282 13.43548852 8.7794909 15.625 13.4375 C16.03234375 14.28376953 16.4396875 15.13003906 16.859375 16.00195312 C17.44332031 17.23655273 17.44332031 17.23655273 18.0390625 18.49609375 C18.39178223 19.24044678 18.74450195 19.9847998 19.10791016 20.75170898 C20.0602265 23.15178595 20.56767634 25.45891005 21 28 C21.66 28 22.32 28 23 28 C23.11859375 27.28360352 23.2371875 26.56720703 23.359375 25.82910156 C24.02291076 22.89882243 24.99987241 20.46309496 26.25 17.734375 C26.6934375 16.76242188 27.136875 15.79046875 27.59375 14.7890625 C28.28984375 13.28472656 28.28984375 13.28472656 29 11.75 C29.69609375 10.22246094 29.69609375 10.22246094 30.40625 8.6640625 C33.85498768 1.14501232 33.85498768 1.14501232 35 0 C37.64 0 40.28 0 43 0 C43 12.54 43 25.08 43 38 C40.69 38 38.38 38 36 38 C35.505 27.605 35.505 27.605 35 17 C34.33613281 18.50433594 33.67226562 20.00867188 32.98828125 21.55859375 C32.09733508 23.51867533 31.20535411 25.47828679 30.3125 27.4375 C29.87744141 28.43072266 29.44238281 29.42394531 28.99414062 30.44726562 C28.55908203 31.39150391 28.12402344 32.33574219 27.67578125 33.30859375 C27.0866394 34.62041626 27.0866394 34.62041626 26.4855957 35.95874023 C25 38 25 38 22.33276367 38.79321289 C21.56295166 38.86145264 20.79313965 38.92969238 20 39 C16.91469026 35.19717637 15.19800342 31.12867464 13.28125 26.65625 C12.07275956 24.150843 10.67861503 22.20085082 9 20 C8.67 19.01 8.34 18.02 8 17 C7.97494385 17.63091553 7.9498877 18.26183105 7.92407227 18.91186523 C7.80845863 21.75396825 7.68557684 24.59571083 7.5625 27.4375 C7.52318359 28.43072266 7.48386719 29.42394531 7.44335938 30.44726562 C7.40146484 31.39150391 7.35957031 32.33574219 7.31640625 33.30859375 C7.26141968 34.62041626 7.26141968 34.62041626 7.20532227 35.95874023 C7 38 7 38 6 39 C3.5625 39.25 3.5625 39.25 1 39 C-1.04283041 35.93575438 -1.25012281 35.34015834 -1.23046875 31.89453125 C-1.22917969 31.08274414 -1.22789063 30.27095703 -1.2265625 29.43457031 C-1.21367188 28.56928711 -1.20078125 27.70400391 -1.1875 26.8125 C-1.18105469 25.92788086 -1.17460938 25.04326172 -1.16796875 24.13183594 C-1.07535481 16.06574086 -0.62891398 8.04111441 0 0 Z " fill="#37628D" transform="translate(95,213)"/>
<path d="M0 0 C17.48965517 0 17.48965517 0 24 6 C24.9795801 10.55080518 24.51900363 14.84403737 22.625 19.0625 C21 21 21 21 19 22 C19.59800255 25.82859106 20.74901344 28.77235864 22.5625 32.1875 C25 36.79320113 25 36.79320113 25 39 C22.69 39 20.38 39 18 39 C17.74605469 38.25234375 17.49210937 37.5046875 17.23046875 36.734375 C16.88628906 35.74953125 16.54210937 34.7646875 16.1875 33.75 C15.85105469 32.77546875 15.51460938 31.8009375 15.16796875 30.796875 C14.02155918 28.05162666 13.08476004 26.1187771 11 24 C9.35 23.67 7.7 23.34 6 23 C6 28.28 6 33.56 6 39 C4.02 39 2.04 39 0 39 C0 26.13 0 13.26 0 0 Z " fill="#36618C" transform="translate(274,213)"/>
<path d="M0 0 C2.31 0 4.62 0 7 0 C8.71484375 1.80078125 8.71484375 1.80078125 9.9375 4.3125 C13.87961842 11.76225605 18.95335087 18.2711345 24 25 C24.33 16.75 24.66 8.5 25 0 C27.31 0 29.62 0 32 0 C32.20638953 25.76376337 32.20638953 25.76376337 31 38 C28.21875 38.31640625 28.21875 38.31640625 25 38 C23.09375 35.83984375 23.09375 35.83984375 21.5 32.9375 C19.06441923 28.74378477 16.58336841 25.16251678 13.35546875 21.5625 C8 15.38904899 8 15.38904899 8 12 C7.34 12 6.68 12 6 12 C6 20.58 6 29.16 6 38 C4.02 38 2.04 38 0 38 C0 25.46 0 12.92 0 0 Z " fill="#315D89" transform="translate(318,213)"/>
<path d="M0 0 C1.92578125 1.2890625 1.92578125 1.2890625 4.73828125 3.9765625 C4.73828125 4.9665625 4.73828125 5.9565625 4.73828125 6.9765625 C2.36328125 8.0390625 2.36328125 8.0390625 -0.26171875 8.9765625 C-0.92171875 8.6465625 -1.58171875 8.3165625 -2.26171875 7.9765625 C-7.42738481 7.58342331 -12.68170319 7.25717826 -17.26171875 9.9765625 C-20.25329366 14.46392486 -19.95791528 18.72140157 -19.26171875 23.9765625 C-18.04643401 27.22143445 -17.22052311 27.78704727 -14.26171875 29.9765625 C-9.53725562 30.89047504 -5.59081803 30.50820221 -1.13671875 28.7265625 C-0.51796875 28.1490625 0.10078125 27.5715625 0.73828125 26.9765625 C0.73828125 25.6565625 0.73828125 24.3365625 0.73828125 22.9765625 C-2.56171875 22.6465625 -5.86171875 22.3165625 -9.26171875 21.9765625 C-9.26171875 19.9965625 -9.26171875 18.0165625 -9.26171875 15.9765625 C-3.98171875 15.9765625 1.29828125 15.9765625 6.73828125 15.9765625 C7.34963496 29.05953193 7.34963496 29.05953193 4.61328125 33.1640625 C3.66453125 33.7621875 2.71578125 34.3603125 1.73828125 34.9765625 C0.87203125 35.5746875 0.00578125 36.1728125 -0.88671875 36.7890625 C-5.74764609 38.49938879 -10.16845878 38.76072659 -15.26171875 37.9765625 C-18.14324017 36.29114431 -19.27359708 35.43722324 -21.26171875 32.9765625 C-21.81988281 32.33332031 -22.37804687 31.69007813 -22.953125 31.02734375 C-26.73865367 26.13514081 -28.27652426 21.96862257 -27.91015625 15.7578125 C-26.44530653 9.4748426 -22.31122217 4.00860481 -17.01171875 0.3515625 C-11.38229281 -1.71256034 -5.62166266 -2.54382663 0 0 Z " fill="#39638C" transform="translate(382.26171875,213.0234375)"/>
<path d="M0 0 C0 1.98 0 3.96 0 6 C-9.405 6.495 -9.405 6.495 -19 7 C-19.33 9.97 -19.66 12.94 -20 16 C-13.4 16 -6.8 16 0 16 C0 17.98 0 19.96 0 22 C-1 23 -1 23 -2.76586914 23.02172852 C-3.88916626 22.95103149 -3.88916626 22.95103149 -5.03515625 22.87890625 C-6.24848633 22.80639648 -6.24848633 22.80639648 -7.48632812 22.73242188 C-8.33646484 22.67634766 -9.18660156 22.62027344 -10.0625 22.5625 C-10.91650391 22.51029297 -11.77050781 22.45808594 -12.65039062 22.40429688 C-14.76721995 22.27421239 -16.88365244 22.13770029 -19 22 C-19 25.3 -19 28.6 -19 32 C-13.06 32.33 -7.12 32.66 -1 33 C-1 34.65 -1 36.3 -1 38 C-9.25 38 -17.5 38 -26 38 C-26 25.46 -26 12.92 -26 0 C-16.98649009 -1.12668874 -8.95357614 -1.32645572 0 0 Z " fill="#325D88" transform="translate(268,213)"/>
<path d="M0 0 C4.17840191 2.38647856 6.6394705 4.7020938 7.9375 9.375 C7.958125 10.24125 7.97875 11.1075 8 12 C5.8125 12.25 5.8125 12.25 3 12 C2.175 11.319375 1.35 10.63875 0.5 9.9375 C-1.84688901 7.66505119 -1.84688901 7.66505119 -4.8125 8.25 C-5.534375 8.4975 -6.25625 8.745 -7 9 C-7 10.98 -7 12.96 -7 15 C-6.01257813 15.32613281 -5.02515625 15.65226563 -4.0078125 15.98828125 C-2.71335727 16.42914644 -1.41909638 16.87058255 -0.125 17.3125 C0.85146484 17.63250977 0.85146484 17.63250977 1.84765625 17.95898438 C5.46488484 19.20823342 6.81421256 19.72131884 9 23 C9.8792839 29.40621129 7.68997059 33.03971167 4 38 C2.285532 39.714468 0.08657934 39.21251477 -2.25 39.25 C-9.65245763 39.14466102 -9.65245763 39.14466102 -13 36 C-15.30093238 32.77717087 -17 30.06697222 -17 26 C-13.625 26.25 -13.625 26.25 -10 27 C-8.5625 29.0625 -8.5625 29.0625 -8 31 C-5.66705225 31.04241723 -3.33297433 31.04092937 -1 31 C0.29633621 29.93354885 0.29633621 29.93354885 0.0625 27.4375 C0.041875 26.633125 0.02125 25.82875 0 25 C-3.64268492 23.36450881 -6.84597296 22.03593964 -10.75 21.125 C-14 20 -14 20 -15.9375 17.875 C-17.31778011 14.1401244 -18.07901049 10.86331027 -17 7 C-12.44197871 1.36020832 -7.24550067 -0.84530841 0 0 Z " fill="#37628C" transform="translate(195,213)"/>
<path d="M0 0 C3 1 3 1 3.921875 2.65234375 C4.19515625 3.40644531 4.4684375 4.16054687 4.75 4.9375 C5.08257812 5.83210937 5.41515625 6.72671875 5.7578125 7.6484375 C6.16773438 8.75445312 6.57765625 9.86046875 7 11 C7.57712183 12.45195986 8.1581317 13.90237795 8.7421875 15.3515625 C9.36984654 16.92185307 9.99745035 18.49216571 10.625 20.0625 C11.07697754 21.17709595 11.07697754 21.17709595 11.53808594 22.31420898 C13.56934566 27.46425628 14.95266048 32.56522209 16 38 C14.02 38 12.04 38 10 38 C9.67 36.68 9.34 35.36 9 34 C4.05 34 -0.9 34 -6 34 C-6 35.32 -6 36.64 -6 38 C-8.64 38 -11.28 38 -14 38 C-12.24015937 31.7170602 -10.20408979 25.53628239 -8.0625 19.375 C-7.70164307 18.31937866 -7.70164307 18.31937866 -7.33349609 17.24243164 C-5.80654314 12.89715112 -4.00703651 8.82679166 -1.86499023 4.74853516 C-0.86912073 2.83604421 -0.86912073 2.83604421 0 0 Z " fill="#36618C" transform="translate(157,213)"/>
<path d="M0 0 C1.084021 0.00523682 2.16804199 0.01047363 3.28491211 0.01586914 C5.03964844 0.02070313 5.03964844 0.02070313 6.82983398 0.02563477 C8.67738281 0.03820312 8.67738281 0.03820312 10.56225586 0.05102539 C12.41560547 0.05779297 12.41560547 0.05779297 14.30639648 0.06469727 C17.37089703 0.07652931 20.43530307 0.09301366 23.49975586 0.11352539 C23.49975586 2.09352539 23.49975586 4.07352539 23.49975586 6.11352539 C20.19975586 6.11352539 16.89975586 6.11352539 13.49975586 6.11352539 C13.49975586 17.00352539 13.49975586 27.89352539 13.49975586 39.11352539 C11.18975586 39.11352539 8.87975586 39.11352539 6.49975586 39.11352539 C6.49975586 28.22352539 6.49975586 17.33352539 6.49975586 6.11352539 C3.19975586 6.11352539 -0.10024414 6.11352539 -3.50024414 6.11352539 C-3.50024414 0.15893111 -3.50024414 0.15893111 0 0 Z " fill="#416990" transform="translate(212.500244140625,212.886474609375)"/>
<path d="M0 0 C2.375 0.6875 2.375 0.6875 3.375 1.6875 C3.48856724 4.6938825 3.53918912 7.67642442 3.54296875 10.68359375 C3.54629715 11.5874733 3.54962555 12.49135284 3.55305481 13.42262268 C3.55812796 15.33846527 3.56046302 17.25431672 3.56030273 19.17016602 C3.56248813 22.10903418 3.58063665 25.04752652 3.59960938 27.98632812 C3.60254337 29.84374871 3.60452813 31.70117109 3.60546875 33.55859375 C3.61265427 34.44195908 3.61983978 35.3253244 3.62724304 36.23545837 C3.60382139 42.45867861 3.60382139 42.45867861 1.375 44.6875 C-1.125 45 -1.125 45 -3.625 44.6875 C-6.26016693 40.7347496 -5.93068308 37.30357842 -5.92578125 32.71484375 C-5.93006638 31.83599014 -5.9343515 30.95713654 -5.93876648 30.051651 C-5.94450739 28.19484316 -5.9450118 26.33801282 -5.94067383 24.48120117 C-5.93750807 21.6322629 -5.96099553 18.78435716 -5.98632812 15.93554688 C-5.98860047 14.13281381 -5.98930491 12.33007795 -5.98828125 10.52734375 C-5.997491 9.67212631 -6.00670074 8.81690887 -6.01618958 7.93577576 C-5.99731445 5.53881836 -5.99731445 5.53881836 -5.625 1.6875 C-2.625 -0.3125 -2.625 -0.3125 0 0 Z " fill="#265888" transform="translate(332.625,128.3125)"/>
<path d="M0 0 C2.31 0 4.62 0 7 0 C7.20638953 25.76376337 7.20638953 25.76376337 6 38 C3.23046875 38.328125 3.23046875 38.328125 0 38 C-2.01171875 35.734375 -2.01171875 35.734375 -3.6875 32.75 C-5.64949354 29.34019053 -7.56227005 26.09319208 -10 23 C-8.35 23 -6.7 23 -5 23 C-4.67 22.34 -4.34 21.68 -4 21 C-3.01 22.32 -2.02 23.64 -1 25 C-0.67 16.75 -0.34 8.5 0 0 Z " fill="#3B658F" transform="translate(343,213)"/>
<path d="M0 0 C1.98 0 3.96 0 6 0 C6.71875936 13.0146785 7.14323814 25.96532922 7 39 C4.69 39 2.38 39 0 39 C0 26.13 0 13.26 0 0 Z " fill="#315D89" transform="translate(305,212)"/>
<path d="M0 0 C2.4279594 2.4279594 3.49079391 4.92121958 5 8 C5.495 8.763125 5.99 9.52625 6.5 10.3125 C8.57382737 14.02810738 9.75405351 17.94404654 11 22 C10.34 22 9.68 22 9 22 C8.62875 22.9590625 8.62875 22.9590625 8.25 23.9375 C7 26 7 26 5.0625 26.875 C3 27 3 27 0 25 C-3.12521833 24.83300768 -3.12521833 24.83300768 -6 25 C-6 24.67 -6 24.34 -6 24 C-4.35 23.67 -2.7 23.34 -1 23 C-0.67 15.41 -0.34 7.82 0 0 Z " fill="#F1F5F7" transform="translate(102,228)"/>
<path d="M0 0 C1.58246707 -0.08153933 3.16616273 -0.13943557 4.75 -0.1875 C6.07257813 -0.23970703 6.07257813 -0.23970703 7.421875 -0.29296875 C10.44671583 0.05076316 11.75583602 1.00227459 14 3 C13.625 5.9375 13.625 5.9375 13 9 C10.49860398 10.25069801 8.72607309 10.13302467 5.9375 10.125 C4.58978516 10.12886719 4.58978516 10.12886719 3.21484375 10.1328125 C1 10 1 10 0 9 C-0.07179964 7.48071962 -0.08392007 5.95832518 -0.0625 4.4375 C-0.05347656 3.61121094 -0.04445313 2.78492188 -0.03515625 1.93359375 C-0.02355469 1.29550781 -0.01195312 0.65742188 0 0 Z " fill="#E9F1F7" transform="translate(279,220)"/>
<path d="M0 0 C0.33 0 0.66 0 1 0 C1 8.91 1 17.82 1 27 C0.34 27 -0.32 27 -1 27 C-0.3045656 30.00384054 -0.3045656 30.00384054 1 33 C3.03243548 33.96877057 3.03243548 33.96877057 5 34 C5 31.69 5 29.38 5 27 C5.33 27 5.66 27 6 27 C6 30.63 6 34.26 6 38 C3.23046875 38.328125 3.23046875 38.328125 0 38 C-2.01171875 35.734375 -2.01171875 35.734375 -3.6875 32.75 C-5.64949354 29.34019053 -7.56227005 26.09319208 -10 23 C-8.35 23 -6.7 23 -5 23 C-4.67 22.34 -4.34 21.68 -4 21 C-3.01 22.32 -2.02 23.64 -1 25 C-0.67 16.75 -0.34 8.5 0 0 Z " fill="#44688E" transform="translate(343,213)"/>
<path d="M0 0 C0.99 0 1.98 0 3 0 C3 6.93 3 13.86 3 21 C1.35 21 -0.3 21 -2 21 C-2.05791844 17.87507749 -2.09356746 14.75029234 -2.125 11.625 C-2.14175781 10.73554688 -2.15851563 9.84609375 -2.17578125 8.9296875 C-2.18222656 8.07890625 -2.18867188 7.228125 -2.1953125 6.3515625 C-2.20578613 5.56604004 -2.21625977 4.78051758 -2.22705078 3.97119141 C-2 2 -2 2 0 0 Z " fill="#2D5986" transform="translate(134,229)"/>
<path d="M0 0 C0.598125 0.20625 1.19625 0.4125 1.8125 0.625 C0.84135254 1.09450073 0.84135254 1.09450073 -0.14941406 1.57348633 C-3.27904014 4.72373165 -2.79070903 8.24571897 -2.796875 12.44921875 C-2.81341125 13.31061966 -2.82994751 14.17202057 -2.84698486 15.05952454 C-2.8955667 17.81058813 -2.91685789 20.56109862 -2.9375 23.3125 C-2.96565124 25.17776236 -2.99557748 27.04299883 -3.02734375 28.90820312 C-3.10132815 33.48042322 -3.1508403 38.05233443 -3.1875 42.625 C-3.8475 42.295 -4.5075 41.965 -5.1875 41.625 C-5.26152368 35.96503584 -5.31604173 30.30535189 -5.35229492 24.64501953 C-5.36740395 22.71853733 -5.38789214 20.79208965 -5.41381836 18.86572266 C-5.45010925 16.10049943 -5.46720479 13.33572996 -5.48046875 10.5703125 C-5.49595261 9.7056839 -5.51143646 8.8410553 -5.52738953 7.95022583 C-5.52807617 5.52392578 -5.52807617 5.52392578 -5.1875 1.625 C-2.1875 -0.375 -2.1875 -0.375 0 0 Z " fill="#597A9C" transform="translate(332.1875,128.375)"/>
<path d="M0 0 C4.05281712 1.22527029 7.44360764 2.69880494 11 5 C10.42655063 7.86724686 10.1385485 8.8614515 8 11 C4.04841529 11.34361606 1.39464446 11.08901197 -2 9 C-1.67 7.68 -1.34 6.36 -1 5 C-0.34 5 0.32 5 1 5 C0.67 3.35 0.34 1.7 0 0 Z " fill="#2E5985" transform="translate(205,114)"/>
<path d="M0 0 C6.6 0 13.2 0 20 0 C20 1.98 20 3.96 20 6 C19.67 6.33 19.34 6.66 19 7 C16.13311752 6.90903444 13.29699485 6.76232012 10.4375 6.5625 C9.63119141 6.51029297 8.82488281 6.45808594 7.99414062 6.40429688 C5.99578262 6.27422624 3.99784614 6.13770944 2 6 C2 5.67 2 5.34 2 5 C4.97 5 7.94 5 11 5 C11 4.34 11 3.68 11 3 C11.66 2.67 12.32 2.34 13 2 C8.71 1.67 4.42 1.34 0 1 C0 0.67 0 0.34 0 0 Z " fill="#5A7B9D" transform="translate(248,229)"/>
<path d="M0 0 C1.98 0 3.96 0 6 0 C6 6.93 6 13.86 6 21 C5.67 21 5.34 21 5 21 C5 14.73 5 8.46 5 2 C4.01 2 3.02 2 2 2 C2.01160156 3.07378906 2.02320313 4.14757812 2.03515625 5.25390625 C2.04454315 6.69010241 2.05364238 8.12630048 2.0625 9.5625 C2.07087891 10.26697266 2.07925781 10.97144531 2.08789062 11.69726562 C2.10882603 16.24024798 1.74800682 20.51784892 1 25 C0.67 25 0.34 25 0 25 C0 16.75 0 8.5 0 0 Z " fill="#4A6C8D" transform="translate(305,212)"/>
<path d="M0 0 C1.5625 1.0625 1.5625 1.0625 3 3 C2.6875 6.6875 2.6875 6.6875 2 10 C0.35 10.66 -1.3 11.32 -3 12 C-5 10 -5 10 -5.125 6.375 C-5.08375 5.26125 -5.0425 4.1475 -5 3 C-4.01 3 -3.02 3 -2 3 C-2 2.34 -2 1.68 -2 1 C-1.34 0.67 -0.68 0.34 0 0 Z " fill="#295683" transform="translate(306,125)"/>
<path d="M0 0 C0.8971875 0.309375 0.8971875 0.309375 1.8125 0.625 C2.1425 2.935 2.4725 5.245 2.8125 7.625 C-0.4375 8.8125 -0.4375 8.8125 -4.1875 9.625 C-6.625 8.25 -6.625 8.25 -8.1875 6.625 C-7.1975 6.625 -6.2075 6.625 -5.1875 6.625 C-5.249375 5.84125 -5.31125 5.0575 -5.375 4.25 C-5.313125 3.38375 -5.25125 2.5175 -5.1875 1.625 C-2.1875 -0.375 -2.1875 -0.375 0 0 Z " fill="#EFF1F3" transform="translate(221.1875,110.375)"/>
<path d="M0 0 C2.475 0.99 2.475 0.99 5 2 C4.67 2.66 4.34 3.32 4 4 C4.33 4.99 4.66 5.98 5 7 C3.25 9.0625 3.25 9.0625 1 11 C-1.25 10.75 -1.25 10.75 -3 10 C-3.33 8.02 -3.66 6.04 -4 4 C-2.68 3.34 -1.36 2.68 0 2 C0 1.34 0 0.68 0 0 Z " fill="#F1F2F4" transform="translate(220,176)"/>
<path d="M0 0 C0.33 0 0.66 0 1 0 C1 6.6 1 13.2 1 20 C-1 17 -1 17 -0.625 14.8125 C-0.41875 14.214375 -0.2125 13.61625 0 13 C-1.98 13.33 -3.96 13.66 -6 14 C-2.99633316 4.22210581 -2.99633316 4.22210581 0 0 Z " fill="#E8F0F7" transform="translate(130,229)"/>
<path d="M0 0 C1.9375 0.9375 1.9375 0.9375 3.1875 3.5 C3.435 4.304375 3.6825 5.10875 3.9375 5.9375 C2.75 7.5 2.75 7.5 0.9375 8.9375 C-3.48355263 8.51644737 -3.48355263 8.51644737 -5.0625 6.9375 C-5.3125 4.5 -5.3125 4.5 -5.0625 1.9375 C-2.0625 -0.0625 -2.0625 -0.0625 0 0 Z " fill="#F4F4F4" transform="translate(334.0625,313.0625)"/>
<path d="M0 0 C1.2684375 0.12375 1.2684375 0.12375 2.5625 0.25 C4.5625 3.25 4.5625 3.25 4.5 5.3125 C3.5625 7.25 3.5625 7.25 1 8.5 C0.195625 8.7475 -0.60875 8.995 -1.4375 9.25 C-3 8.0625 -3 8.0625 -4.4375 6.25 C-3.88016338 0.39796547 -3.88016338 0.39796547 0 0 Z " fill="#F4F4F4" transform="translate(456.4375,305.75)"/>
<path d="M0 0 C1.2684375 0.12375 1.2684375 0.12375 2.5625 0.25 C4.5625 3.25 4.5625 3.25 4.5 5.3125 C3.5625 7.25 3.5625 7.25 1 8.5 C0.195625 8.7475 -0.60875 8.995 -1.4375 9.25 C-3 8.0625 -3 8.0625 -4.4375 6.25 C-3.88016338 0.39796547 -3.88016338 0.39796547 0 0 Z " fill="#F4F4F4" transform="translate(6.4375,305.75)"/>
<path d="M0 0 C1.875 0.6875 1.875 0.6875 2.875 1.6875 C3.0625 4.125 3.0625 4.125 2.875 6.6875 C2.215 7.3475 1.555 8.0075 0.875 8.6875 C-3.68055556 8.13194444 -3.68055556 8.13194444 -5.125 6.6875 C-5.375 4.25 -5.375 4.25 -5.125 1.6875 C-2.125 -0.3125 -2.125 -0.3125 0 0 Z " fill="#F4F4F4" transform="translate(221.125,313.3125)"/>
<path d="M0 0 C3.25696479 0.41755959 4.63443291 0.63443291 7 3 C6.9375 5 6.9375 5 6 7 C3.4375 8.25 3.4375 8.25 1 9 C-0.5625 7.8125 -0.5625 7.8125 -2 6 C-1.57894737 1.57894737 -1.57894737 1.57894737 0 0 Z " fill="#F4F4F4" transform="translate(331,246)"/>
<path d="M0 0 C3.75283733 1.45271122 3.75283733 1.45271122 4.875 3.9375 C5 6 5 6 3 9 C0.5 9.375 0.5 9.375 -2 9 C-4 6 -4 6 -3.8125 3.9375 C-3 2 -3 2 0 0 Z " fill="#F4F4F4" transform="translate(456,170)"/>
<path d="M0 0 C2 3 2 3 1.9375 5.0625 C1 7 1 7 -1.5625 8.25 C-2.366875 8.4975 -3.17125 8.745 -4 9 C-5.5625 7.8125 -5.5625 7.8125 -7 6 C-6.8125 3.375 -6.8125 3.375 -6 1 C-4 0 -4 0 0 0 Z " fill="#F4F4F4" transform="translate(9,103)"/>
<path d="M0 0 C4.55555556 0.55555556 4.55555556 0.55555556 6 2 C6.25 4.4375 6.25 4.4375 6 7 C3 9 3 9 0.875 8.6875 C-1 8 -1 8 -2 7 C-2.1875 4.5625 -2.1875 4.5625 -2 2 C-1.34 1.34 -0.68 0.68 0 0 Z " fill="#F4F4F4" transform="translate(361,24)"/>
<path d="M0 0 C0.33 1.65 0.66 3.3 1 5 C-0.32 5.99 -1.64 6.98 -3 8 C-4.32 7.34 -5.64 6.68 -7 6 C-7 4.02 -7 2.04 -7 0 C-4.3333581 -1.33332095 -2.83319697 -0.67102033 0 0 Z " fill="#F4F4F4" transform="translate(123,307)"/>
<path d="M0 0 C1.1875 2.5625 1.1875 2.5625 2 5 C0.8125 6.5625 0.8125 6.5625 -1 8 C-3.6875 7.6875 -3.6875 7.6875 -6 7 C-6.33 5.02 -6.66 3.04 -7 1 C-3.375 -1.125 -3.375 -1.125 0 0 Z " fill="#F4F4F4" transform="translate(223,42)"/>
<path d="M0 0 C0.598125 0.226875 1.19625 0.45375 1.8125 0.6875 C2.1425 2.6675 2.4725 4.6475 2.8125 6.6875 C-0.1875 8.6875 -0.1875 8.6875 -2.375 8.3125 C-2.973125 8.10625 -3.57125 7.9 -4.1875 7.6875 C-4.875 5.375 -4.875 5.375 -5.1875 2.6875 C-3.60587179 0.1901923 -2.97595617 -0.4251366 0 0 Z " fill="#F4F4F4" transform="translate(364.1875,296.3125)"/>
<path d="M0 0 C-0.14095064 1.6254308 -0.28792087 3.25034051 -0.4375 4.875 C-0.51871094 5.77992188 -0.59992188 6.68484375 -0.68359375 7.6171875 C-1 10 -1 10 -2 12 C-1.72057545 13.67654729 -1.39171753 15.34608154 -1 17 C-1.66 17 -2.32 17 -3 17 C-5.22264871 13.66602694 -5.29675463 12.40485109 -5.3125 8.5 C-5.32925781 7.5409375 -5.34601563 6.581875 -5.36328125 5.59375 C-5 3 -5 3 -3.60546875 1.15625 C-2 0 -2 0 0 0 Z " fill="#2E5884" transform="translate(362,226)"/>
<path d="M0 0 C0.33 0 0.66 0 1 0 C1.04934656 5.80239614 1.08569402 11.60467081 1.10986328 17.40722656 C1.11993627 19.38218309 1.13359521 21.35712466 1.15087891 23.33203125 C1.17507039 26.16670418 1.18646991 29.00118038 1.1953125 31.8359375 C1.20563507 32.72243988 1.21595764 33.60894226 1.22659302 34.52230835 C1.2269907 36.68285952 1.12272534 38.84293718 1 41 C-1 43 -1 43 -3.625 43.125 C-4.40875 43.08375 -5.1925 43.0425 -6 43 C-4.515 42.505 -4.515 42.505 -3 42 C-3 41.34 -3 40.68 -3 40 C-2.01 39.505 -2.01 39.505 -1 39 C-0.67 26.13 -0.34 13.26 0 0 Z " fill="#375E85" transform="translate(335,130)"/>
<path d="M0 0 C1.32 0 2.64 0 4 0 C4 2.97 4 5.94 4 9 C-0.875 8.125 -0.875 8.125 -2 7 C-2.04063832 5.33382885 -2.042721 3.66611905 -2 2 C-1.34 2 -0.68 2 0 2 C0 1.34 0 0.68 0 0 Z " fill="#275383" transform="translate(344,238)"/>
<path d="M0 0 C0.66 0 1.32 0 2 0 C2 1.32 2 2.64 2 4 C2.99 4 3.98 4 5 4 C7.1875 7 7.1875 7 9 10 C8.67 10.66 8.34 11.32 8 12 C6.35 12 4.7 12 3 12 C3.33 11.01 3.66 10.02 4 9 C3.175 8.608125 2.35 8.21625 1.5 7.8125 C0.675 7.214375 -0.15 6.61625 -1 6 C-1.375 3.375 -1.375 3.375 -1 1 C-0.67 0.67 -0.34 0.34 0 0 Z " fill="#EDEFF2" transform="translate(352,234)"/>
<path d="M0 0 C1.32 0.33 2.64 0.66 4 1 C4.93065133 3.60582371 5.14917407 4.64198224 4.0625 7.25 C3.711875 7.8275 3.36125 8.405 3 9 C1.35 8.67 -0.3 8.34 -2 8 C-2.33 7.01 -2.66 6.02 -3 5 C-2.01 4.34 -1.02 3.68 0 3 C0 2.01 0 1.02 0 0 Z " fill="#2B5683" transform="translate(119,238)"/>
<path d="M0 0 C0.33 0 0.66 0 1 0 C1.03738281 0.59167969 1.07476562 1.18335938 1.11328125 1.79296875 C1.53910809 7.04960525 1.53910809 7.04960525 3.6875 11.8125 C4.3371875 12.8953125 4.3371875 12.8953125 5 14 C4.25 16.1875 4.25 16.1875 3 18 C2.67 18.66 2.34 19.32 2 20 C-0.46773853 16.35203869 -1.60004679 13.39948529 -2 9 C-1.67 8.67 -1.34 8.34 -1 8 C-0.76924918 6.65252916 -0.58846937 5.29622435 -0.4375 3.9375 C-0.293125 2.638125 -0.14875 1.33875 0 0 Z " fill="#486F96" transform="translate(361,228)"/>
<path d="M0 0 C0.66 0 1.32 0 2 0 C2.99 3.3 3.98 6.6 5 10 C2.69 10 0.38 10 -2 10 C-1.34 6.7 -0.68 3.4 0 0 Z " fill="#E6F1F9" transform="translate(157,230)"/>
<path d="M0 0 C5.45224007 -0.38038884 5.45224007 -0.38038884 8.25 1.5625 C12.47715079 3.772147 16.41011118 2.73972965 21 2 C19.41907316 5.16185368 17.23325243 5.77990474 14 7 C9.00811495 6.02332684 4.49049469 3.3478221 0 1 C0 0.67 0 0.34 0 0 Z " fill="#E1ECF5" transform="translate(229,170)"/>
<path d="M0 0 C0.99 0.33 1.98 0.66 3 1 C3.99 0.67 4.98 0.34 6 0 C6.66 0 7.32 0 8 0 C8 0.66 8 1.32 8 2 C7.175 2.474375 6.35 2.94875 5.5 3.4375 C4.675 3.953125 3.85 4.46875 3 5 C3 5.99 3 6.98 3 8 C2.01 8 1.02 8 0 8 C-0.433125 7.0409375 -0.433125 7.0409375 -0.875 6.0625 C-1.82823451 3.84793921 -1.82823451 3.84793921 -4 3 C-2.1875 1.4375 -2.1875 1.4375 0 0 Z " fill="#F5F5F5" transform="translate(145,358)"/>
<path d="M0 0 C1.65 0.33 3.3 0.66 5 1 C5 2.32 5 3.64 5 5 C6.32 5.66 7.64 6.32 9 7 C8.34 7.66 7.68 8.32 7 9 C5.68 9 4.36 9 3 9 C-0.22265625 3.7265625 -0.22265625 3.7265625 -1 2 C-0.67 1.34 -0.34 0.68 0 0 Z " fill="#F3F3F3" transform="translate(72,58)"/>
<path d="M0 0 C0.66 0.33 1.32 0.66 2 1 C2 4.3 2 7.6 2 11 C0.68 11 -0.64 11 -2 11 C-2 7.7 -2 4.4 -2 1 C-1.34 0.67 -0.68 0.34 0 0 Z " fill="#285584" transform="translate(223,239)"/>
<path d="M0 0 C0.66 0.33 1.32 0.66 2 1 C1.34386719 1.49886719 0.68773437 1.99773437 0.01171875 2.51171875 C-2.70599234 5.87323713 -2.41160645 8.69881715 -2.1875 12.8125 C-1.98626726 18.03964318 -2.11510872 22.83250511 -3 28 C-3.33 28 -3.66 28 -4 28 C-4.11591764 23.89606988 -4.18715601 19.79255894 -4.25 15.6875 C-4.28351563 14.52025391 -4.31703125 13.35300781 -4.3515625 12.15039062 C-4.36445313 11.03212891 -4.37734375 9.91386719 -4.390625 8.76171875 C-4.41157227 7.73006592 -4.43251953 6.69841309 -4.45410156 5.63549805 C-4 3 -4 3 -1.97558594 1.13989258 C-1.32364258 0.76372803 -0.67169922 0.38756348 0 0 Z " fill="#E6F0F8" transform="translate(314,105)"/>
<path d="M0 0 C0.33 0.66 0.66 1.32 1 2 C4.04581269 2.46954261 4.04581269 2.46954261 7.5625 2.625 C8.76003906 2.69976562 9.95757812 2.77453125 11.19140625 2.8515625 C12.11824219 2.90054688 13.04507812 2.94953125 14 3 C14 3.33 14 3.66 14 4 C8.72 4 3.44 4 -2 4 C-2 5.98 -2 7.96 -2 10 C-3.74627478 7.38058783 -4.38722388 5.96175123 -5 3 C-3.35 2.01 -1.7 1.02 0 0 Z " fill="#DCE7F2" transform="translate(375,225)"/>
<path d="M0 0 C0.99 0.33 1.98 0.66 3 1 C5.14255793 0.61067144 5.14255793 0.61067144 7 0 C5.50163895 3.11198065 3.80066242 6.0534615 2 9 C1.34 8.67 0.68 8.34 0 8 C0.33 7.34 0.66 6.68 1 6 C0.34 5.67 -0.32 5.34 -1 5 C-1.99 4.34 -2.98 3.68 -4 3 C-2.1875 1.4375 -2.1875 1.4375 0 0 Z " fill="#F5F5F5" transform="translate(32,155)"/>
<path d="M0 0 C0.99 0 1.98 0 3 0 C3 2.64 3 5.28 3 8 C1.68 7.67 0.36 7.34 -1 7 C-1.625 4.625 -1.625 4.625 -2 2 C-1.34 1.34 -0.68 0.68 0 0 Z " fill="#275380" transform="translate(134,229)"/>
<path d="M0 0 C0.99 0 1.98 0 3 0 C3.33 0.66 3.66 1.32 4 2 C4.99 1.67 5.98 1.34 7 1 C7.33 1.99 7.66 2.98 8 4 C5.4345406 6.5654594 3.52313332 6.54046087 0 7 C0 4.69 0 2.38 0 0 Z " fill="#265382" transform="translate(229,173)"/>
<path d="M0 0 C0.66 0 1.32 0 2 0 C2.33 0.66 2.66 1.32 3 2 C4.32 1.34 5.64 0.68 7 0 C7 0.99 7 1.98 7 3 C0.25 7 0.25 7 -2 7 C-2.125 4.625 -2.125 4.625 -2 2 C-1.34 1.34 -0.68 0.68 0 0 Z " fill="#F5F5F5" transform="translate(259,290)"/>
<path d="M0 0 C1.32 0.66 2.64 1.32 4 2 C3.44271087 5.34373475 2.64826111 8.03312999 1 11 C-1.125 6.375 -1.125 6.375 0 3 C0 2.01 0 1.02 0 0 Z " fill="#ECEFF3" transform="translate(363,229)"/>
<path d="M0 0 C0.33 0 0.66 0 1 0 C1 1.98 1 3.96 1 6 C2.65 6 4.3 6 6 6 C4.75 7.5625 4.75 7.5625 3 9 C0.8125 8.6875 0.8125 8.6875 -1 8 C-1.625 5.125 -1.625 5.125 -2 2 C-1.34 1.34 -0.68 0.68 0 0 Z " fill="#F0F3F7" transform="translate(218,246)"/>
<path d="M0 0 C0.144375 0.598125 0.28875 1.19625 0.4375 1.8125 C0.8872439 3.56150404 1.42892341 5.28677023 2 7 C0.02 7.99 0.02 7.99 -2 9 C-3.5625 7.1875 -3.5625 7.1875 -5 5 C-4 2 -4 2 -1.9375 0.8125 C-1.298125 0.544375 -0.65875 0.27625 0 0 Z " fill="#F6F6F6" transform="translate(373,18)"/>
<path d="M0 0 C0.99 0 1.98 0 3 0 C2.34 2.64 1.68 5.28 1 8 C-0.65 8 -2.3 8 -4 8 C-1.125 1.125 -1.125 1.125 0 0 Z " fill="#EAF0F5" transform="translate(149,224)"/>
<path d="M0 0 C0.74886475 0.00523682 1.49772949 0.01047363 2.26928711 0.01586914 C3.07817383 0.0190918 3.88706055 0.02231445 4.72045898 0.02563477 C5.5705957 0.03401367 6.42073242 0.04239258 7.29663086 0.05102539 C8.15063477 0.05553711 9.00463867 0.06004883 9.88452148 0.06469727 C12.00108749 0.07652166 14.11761771 0.0944577 16.23413086 0.11352539 C16.23413086 0.44352539 16.23413086 0.77352539 16.23413086 1.11352539 C15.19772461 1.13930664 14.16131836 1.16508789 13.09350586 1.19165039 C11.72367285 1.2479449 10.35388281 1.30529194 8.98413086 1.36352539 C7.96125977 1.38479492 7.96125977 1.38479492 6.91772461 1.40649414 C3.3630088 1.57905316 1.53199527 1.86811509 -1.25024414 4.16040039 C-1.75040039 4.80493164 -2.25055664 5.44946289 -2.76586914 6.11352539 C-2.80859014 4.44740634 -2.80650746 2.77969654 -2.76586914 1.11352539 C-1.76586914 0.11352539 -1.76586914 0.11352539 0 0 Z " fill="#C1D4E6" transform="translate(250.765869140625,218.886474609375)"/>
<path d="M0 0 C3.3 0 6.6 0 10 0 C8.02 0.99 8.02 0.99 6 2 C6 2.66 6 3.32 6 4 C4.35 4 2.7 4 1 4 C0.67 2.68 0.34 1.36 0 0 Z " fill="#2F5986" transform="translate(253,230)"/>
<path d="M0 0 C0 2.64 0 5.28 0 8 C-1.65 8.33 -3.3 8.66 -5 9 C-4.67 8.34 -4.34 7.68 -4 7 C-3.34 7 -2.68 7 -2 7 C-2.33 5.35 -2.66 3.7 -3 2 C-4.65 2.66 -6.3 3.32 -8 4 C-8 3.34 -8 2.68 -8 2 C-3.61016949 -1.20338983 -3.61016949 -1.20338983 0 0 Z " fill="#E9EDF2" transform="translate(149,88)"/>
<path d="M0 0 C0 3.99904969 -1.72586967 5.80200422 -4 9 C-6 8 -6 8 -7 5 C-4.69 3.35 -2.38 1.7 0 0 Z " fill="#F6F6F6" transform="translate(152,290)"/>
<path d="M0 0 C0.33 0 0.66 0 1 0 C1.02685938 2.14576637 1.04633088 4.29162645 1.0625 6.4375 C1.07410156 7.63246094 1.08570312 8.82742187 1.09765625 10.05859375 C1 13 1 13 0 14 C-1.66617115 14.04063832 -3.33388095 14.042721 -5 14 C-5.33 13.34 -5.66 12.68 -6 12 C-4.35 12 -2.7 12 -1 12 C-0.67 8.04 -0.34 4.08 0 0 Z " fill="#7996B3" transform="translate(101,238)"/>
<path d="M0 0 C1 3 1 3 1 6 C-0.32 6.33 -1.64 6.66 -3 7 C-3 6.34 -3 5.68 -3 5 C-3.66 4.34 -4.32 3.68 -5 3 C-3.35 2.01 -1.7 1.02 0 0 Z " fill="#F5F5F5" transform="translate(373,87)"/>
<path d="M0 0 C0.66 0 1.32 0 2 0 C3.0730756 3.2192268 2.79946725 3.90206442 2 7 C2.33 7.66 2.66 8.32 3 9 C1.68 8.34 0.36 7.68 -1 7 C-1.04254356 5.00045254 -1.04080783 2.99958364 -1 1 C-0.67 0.67 -0.34 0.34 0 0 Z " fill="#507396" transform="translate(149,88)"/>
<path d="M0 0 C2.6465335 2.6465335 3.59941997 5.56221264 5 9 C3.35 9 1.7 9 0 9 C0 6.03 0 3.06 0 0 Z " fill="#D9E9F4" transform="translate(102,228)"/>
<path d="M0 0 C0 2.66420516 -0.09162237 4.52260646 -1 7 C-1.99 7.33 -2.98 7.66 -4 8 C-4.25 5.6875 -4.25 5.6875 -4 3 C-2 1.1875 -2 1.1875 0 0 Z " fill="#F5F5F5" transform="translate(149,20)"/>
<path d="M0 0 C2.72426311 2.35277269 3.8141763 4.62496331 5 8 C4.01 8 3.02 8 2 8 C1.34 5.36 0.68 2.72 0 0 Z " fill="#D7E1EC" transform="translate(336,240)"/>
<path d="M0 0 C0 1.98 0 3.96 0 6 C-0.33 5.34 -0.66 4.68 -1 4 C-2.32 4 -3.64 4 -5 4 C-5 3.01 -5 2.02 -5 1 C-1.125 0 -1.125 0 0 0 Z " fill="#365F8A" transform="translate(349,234)"/>
<path d="M0 0 C0.66 0 1.32 0 2 0 C2.66 2.31 3.32 4.62 4 7 C3.34 6.67 2.68 6.34 2 6 C2 5.34 2 4.68 2 4 C1.34 4 0.68 4 0 4 C-0.33 4.99 -0.66 5.98 -1 7 C-0.67 4.69 -0.34 2.38 0 0 Z " fill="#B7CDE1" transform="translate(157,230)"/>
<path d="M0 0 C0.75 1.75 0.75 1.75 1 4 C-0.9375 6.25 -0.9375 6.25 -3 8 C-3.33 7.34 -3.66 6.68 -4 6 C-2.68 4.02 -1.36 2.04 0 0 Z " fill="#F6F6F6" transform="translate(375,360)"/>
<path d="M0 0 C1.32 1.32 2.64 2.64 4 4 C3.67 4.66 3.34 5.32 3 6 C1.35 6 -0.3 6 -2 6 C-1.34 4.02 -0.68 2.04 0 0 Z " fill="#D5DEE9" transform="translate(357,240)"/>
<path d="M0 0 C0.33 0 0.66 0 1 0 C1 2.64 1 5.28 1 8 C0.34 7.34 -0.32 6.68 -1 6 C-1.99 6.495 -1.99 6.495 -3 7 C-1.125 1.125 -1.125 1.125 0 0 Z " fill="#CBDFF0" transform="translate(130,229)"/>
<path d="M0 0 C1.98 0 3.96 0 6 0 C6.66 1.32 7.32 2.64 8 4 C2.25 2.25 2.25 2.25 0 0 Z " fill="#D9E4EE" transform="translate(229,170)"/>
<path d="M0 0 C0.33 0 0.66 0 1 0 C1.125 2.375 1.125 2.375 1 5 C-1 7 -1 7 -3.625 7.125 C-4.40875 7.08375 -5.1925 7.0425 -6 7 C-5.01 6.67 -4.02 6.34 -3 6 C-3 5.34 -3 4.68 -3 4 C-2.34 3.67 -1.68 3.34 -1 3 C-0.67 2.01 -0.34 1.02 0 0 Z " fill="#537497" transform="translate(335,166)"/>
</svg>
